<svg width="1920" height="1080" version="1.1" viewBox="0 0 508 285.75" xmlns="http://www.w3.org/2000/svg">
 <g fill-rule="evenodd" shape-rendering="auto">
  <path d="m0.37799 0.37798h271c1.1019 36.098-47.863 57.421-89.341 69.413-48.696 16.089-62.493 38.77-85.532 89.788-12.881 28.524-59.905 46.372-96.128 51.332z" color="#000000" color-rendering="auto" dominant-baseline="auto" fill="#ffe15a" image-rendering="auto" solid-color="#000000" stop-color="#000000" style="font-feature-settings:normal;font-variant-alternates:normal;font-variant-caps:normal;font-variant-east-asian:normal;font-variant-ligatures:normal;font-variant-numeric:normal;font-variant-position:normal;font-variation-settings:normal;inline-size:0;isolation:auto;mix-blend-mode:normal;shape-margin:0;shape-padding:0;text-decoration-color:#000000;text-decoration-line:none;text-decoration-style:solid;text-indent:0;text-orientation:mixed;text-transform:none;white-space:normal"/>
  <path d="m0.37798 0.37798h219.6c0.89288 29.487-38.785 46.906-72.396 56.702-39.459 13.142-50.64 31.67-69.309 73.345-10.438 23.3-48.543 37.88-77.896 41.932z" color="#000000" color-rendering="auto" dominant-baseline="auto" fill="#ff4c5a" image-rendering="auto" solid-color="#000000" stop-color="#000000" style="font-feature-settings:normal;font-variant-alternates:normal;font-variant-caps:normal;font-variant-east-asian:normal;font-variant-ligatures:normal;font-variant-numeric:normal;font-variant-position:normal;font-variation-settings:normal;inline-size:0;isolation:auto;mix-blend-mode:normal;shape-margin:0;shape-padding:0;text-decoration-color:#000000;text-decoration-line:none;text-decoration-style:solid;text-indent:0;text-orientation:mixed;text-transform:none;white-space:normal"/>
  <path d="m0.37798 0.37798h171.98c0.69927 23.784-30.374 37.834-56.696 45.735-30.902 10.601-39.659 25.545-54.279 59.16-8.1743 18.794-38.016 30.554-61.003 33.822z" color="#000000" color-rendering="auto" dominant-baseline="auto" fill="#464653" image-rendering="auto" solid-color="#000000" stop-color="#000000" style="font-feature-settings:normal;font-variant-alternates:normal;font-variant-caps:normal;font-variant-east-asian:normal;font-variant-ligatures:normal;font-variant-numeric:normal;font-variant-position:normal;font-variation-settings:normal;inline-size:0;isolation:auto;mix-blend-mode:normal;shape-margin:0;shape-padding:0;text-decoration-color:#000000;text-decoration-line:none;text-decoration-style:solid;text-indent:0;text-orientation:mixed;text-transform:none;white-space:normal"/>
 </g>
</svg>
