<?xml version="1.0" encoding="UTF-8" standalone="no"?>
<svg
   xmlns:dc="http://purl.org/dc/elements/1.1/"
   xmlns:cc="http://creativecommons.org/ns#"
   xmlns:rdf="http://www.w3.org/1999/02/22-rdf-syntax-ns#"
   xmlns:svg="http://www.w3.org/2000/svg"
   xmlns="http://www.w3.org/2000/svg"
   xmlns:xlink="http://www.w3.org/1999/xlink"
   xmlns:sodipodi="http://sodipodi.sourceforge.net/DTD/sodipodi-0.dtd"
   xmlns:inkscape="http://www.inkscape.org/namespaces/inkscape"
   width="48"
   height="48"
   viewBox="0 0 12.7 12.7"
   version="1.1"
   id="svg8"
   inkscape:version="1.0.2-2 (e86c870879, 2021-01-15)"
   sodipodi:docname="Person.svg">
  <defs
     id="defs2">
    <linearGradient
       inkscape:collect="always"
       id="linearGradient2208">
      <stop
         style="stop-color:#000000;stop-opacity:1"
         offset="0"
         id="stop2204" />
      <stop
         style="stop-color:#ff4c5a;stop-opacity:1"
         offset="0.53897524"
         id="stop2214" />
      <stop
         style="stop-color:#ffe15a;stop-opacity:1"
         offset="1"
         id="stop2206" />
    </linearGradient>
    <linearGradient
       inkscape:collect="always"
       xlink:href="#linearGradient2208"
       id="linearGradient2212"
       gradientUnits="userSpaceOnUse"
       x1="6.2808342"
       y1="0.69366914"
       x2="6.2817135"
       y2="7.7261982" />
  </defs>
  <sodipodi:namedview
     id="base"
     pagecolor="#ffffff"
     bordercolor="#666666"
     borderopacity="1.0"
     inkscape:pageopacity="0.0"
     inkscape:pageshadow="2"
     inkscape:zoom="15.839192"
     inkscape:cx="44.262501"
     inkscape:cy="34.074229"
     inkscape:document-units="mm"
     inkscape:current-layer="layer1"
     inkscape:document-rotation="0"
     showgrid="false"
     units="px"
     inkscape:window-width="2400"
     inkscape:window-height="1261"
     inkscape:window-x="2391"
     inkscape:window-y="-9"
     inkscape:window-maximized="1"
     showguides="true" />
  <metadata
     id="metadata5">
    <rdf:RDF>
      <cc:Work
         rdf:about="">
        <dc:format>image/svg+xml</dc:format>
        <dc:type
           rdf:resource="http://purl.org/dc/dcmitype/StillImage" />
        <dc:title></dc:title>
      </cc:Work>
    </rdf:RDF>
  </metadata>
  <g
     inkscape:label="Layer 1"
     inkscape:groupmode="layer"
     id="layer1">
    <path
       id="path833"
       style="fill:#ffe15a;fill-opacity:1;stroke-width:0.287078"
       d="M 9.3346758,6.6317234 H 2.9438515 A 3.4999998,3.4999998 0 0 0 6.139522,8.7039482 3.4999998,3.4999998 0 0 0 9.3346758,6.6317234 Z" />
    <path
       id="path4144"
       style="fill:#ff4c5a;fill-opacity:1;stroke-width:0.287078"
       d="M 9.404439,3.9424817 H 2.8746052 a 3.4999998,3.4999998 0 0 0 -0.2351278,1.2614217 3.4999998,3.4999998 0 0 0 0.3043741,1.42782 H 9.3346758 A 3.4999998,3.4999998 0 0 0 9.6390501,5.2039034 3.4999998,3.4999998 0 0 0 9.404439,3.9424817 Z" />
    <path
       id="path4142"
       style="fill:#000000;fill-opacity:1;stroke-width:0.287078"
       d="M 6.139522,1.7038588 A 3.4999998,3.4999998 0 0 0 2.8746052,3.9424817 H 9.404439 A 3.4999998,3.4999998 0 0 0 6.139522,1.7038588 Z" />
    <path
       id="rect861"
       style="fill:#ffe15a;fill-opacity:1;stroke-width:0.999999"
       d="M 30.746094 48.015625 L 48.044922 47.982422 L 48.109375 43.5 C 48.109375 43.5 40.035013 39.797608 30.746094 38.208984 L 30.746094 48.015625 z "
       transform="scale(0.26458333)" />
    <path
       id="path4161"
       style="fill:#000000;fill-opacity:1;stroke-width:0.999999"
       d="M 15.720703 38.162109 C 6.9078721 39.7831 0.0625 43.5625 0.0625 43.5625 L 0.03125 48.076172 L 15.720703 48.044922 L 15.720703 38.162109 z "
       transform="scale(0.26458333)" />
    <path
       id="path4159"
       style="fill:#ff4c5a;fill-opacity:1;stroke-width:0.999999"
       d="M 15.720703 38.162109 L 15.720703 48.044922 L 30.746094 48.015625 L 30.746094 38.208984 C 28.339063 37.797326 25.882624 37.421374 23.425781 37.414062 C 20.762744 37.394832 18.178008 37.710124 15.720703 38.162109 z "
       transform="scale(0.26458333)" />
  </g>
</svg>
